<!DOCTYPE svg PUBLIC "-//W3C//DTD SVG 1.1//EN" "http://www.w3.org/Graphics/SVG/1.1/DTD/svg11.dtd">
<!-- Uploaded to: SVG Repo, www.svgrepo.com, Transformed by: SVG Repo Mixer Tools -->
<svg fill="#000000" width="800px" height="800px" viewBox="0 0 24 24" id="notification-alert-left-2" data-name="Line Color" xmlns="http://www.w3.org/2000/svg" class="icon line-color">
<g id="SVGRepo_bgCarrier" stroke-width="0"/>
<g id="SVGRepo_tracerCarrier" stroke-linecap="round" stroke-linejoin="round"/>
<g id="SVGRepo_iconCarrier">
<path id="secondary" d="M12,21h0a3,3,0,0,0,3-3H9A3,3,0,0,0,12,21ZM7,6V3" style="fill: none; stroke: #ff0000; stroke-linecap: round; stroke-linejoin: round; stroke-width: 2;"/>
<path id="primary" d="M11,3.09A5.47,5.47,0,0,1,12,3a6,6,0,0,1,6,6v4l1.38,1.38A2.12,2.12,0,0,1,17.88,18H6.12A2.12,2.12,0,0,1,4,15.88,2.17,2.17,0,0,1,4.19,15" style="fill: none; stroke: #000000; stroke-linecap: round; stroke-linejoin: round; stroke-width: 2;"/>
<line id="secondary-upstroke" x1="7.05" y1="10.5" x2="6.95" y2="10.5" style="fill: none; stroke: #ff0000; stroke-linecap: round; stroke-linejoin: round; stroke-width: 2;"/>
</g>
</svg>